<svg width="17" height="14" viewBox="0 0 17 14" fill="none" xmlns="http://www.w3.org/2000/svg">
<path d="M14.9359 3.6875C14.9359 3.84375 14.9359 3.96875 14.9359 4.125C14.9359 8.46875 11.6547 13.4375 5.62344 13.4375C3.74844 13.4375 2.02969 12.9062 0.592187 11.9688C0.842187 12 1.09219 12.0312 1.37344 12.0312C2.90469 12.0312 4.31094 11.5 5.43594 10.625C3.99844 10.5938 2.77969 9.65625 2.37344 8.34375C2.59219 8.375 2.77969 8.40625 2.99844 8.40625C3.27969 8.40625 3.59219 8.34375 3.84219 8.28125C2.34219 7.96875 1.21719 6.65625 1.21719 5.0625V5.03125C1.65469 5.28125 2.18594 5.40625 2.71719 5.4375C1.81094 4.84375 1.24844 3.84375 1.24844 2.71875C1.24844 2.09375 1.40469 1.53125 1.68594 1.0625C3.31094 3.03125 5.74844 4.34375 8.46719 4.5C8.40469 4.25 8.37344 4 8.37344 3.75C8.37344 1.9375 9.84219 0.46875 11.6547 0.46875C12.5922 0.46875 13.4359 0.84375 14.0609 1.5C14.7797 1.34375 15.4984 1.0625 16.1234 0.6875C15.8734 1.46875 15.3734 2.09375 14.6859 2.5C15.3422 2.4375 15.9984 2.25 16.5609 2C16.1234 2.65625 15.5609 3.21875 14.9359 3.6875Z" fill="black"/>
</svg>
